<?xml version="1.0" encoding="utf-8"?>
<!-- Generator: Adobe Illustrator 18.1.0, SVG Export Plug-In . SVG Version: 6.00 Build 0)  -->
<svg version="1.1" id="Layer_1" xmlns="http://www.w3.org/2000/svg" xmlns:xlink="http://www.w3.org/1999/xlink" x="0px" y="0px"
	 viewBox="0 0 2613.3 790.3" enable-background="new 0 0 2613.3 790.3" xml:space="preserve">
<text transform="matrix(1 0 0 1 1611.5704 474.5171)" font-family="'GreekS_IV25'" font-size="107.307">freshandfast</text>
<text transform="matrix(1 0 0 1 893.9243 353.4033)"><tspan x="0" y="0" font-family="'Exo-Regular'" font-size="149.1605" letter-spacing="14">HEXAHYDROTHYMOL</tspan><tspan x="1647.5" y="0" font-family="'Exo-Regular'" font-size="181" letter-spacing="18">°</tspan></text>
<path fill="#85DEC0" d="M326.1,50l80.9,7.1c0.1,0,0.1,0,0.2,0l63.4-7c15.2-1.7,21.7,18.7,8.4,26.1l-71.4,40c-0.3,0.2-0.7,0.2-1.1,0
	l-86.1-47.8C311.2,63.3,315.5,49.1,326.1,50z"/>
<path fill="#85DEC0" d="M706.9,66.4l62.9,14.8c3,0.8,6.3,0.7,9.3-0.4l48.9-12c12.2-1.3,13.1,10.7,2.4,16.7l-56.6,31.7
	c-0.3,0.2-0.7,0.2-1,0l-68.4-38C696.8,75.1,698.3,65.7,706.9,66.4z"/>
<path fill="#85DEC0" d="M259.6,685.4l-0.6-97.9c-0.1-9.4,5.3-18.1,14.1-22.9l139.1-75.5c8.8-4.8,19.7-4.8,28.5-0.2l96.5,50.7
	c21.8,11.5,18.1,41.5-6,48.1l-145,40.1c-3.9,1.1-7.4,3-10.3,5.6l-74.3,67.9C286.1,715.7,259.7,705.6,259.6,685.4z"/>
<path fill="#85DEC0" d="M296.1,372.5l-100.8,57.1c-5,2.8-11.1,2.8-16.1,0L103,386.4c-12.3-6.9-10-24.9,3.5-28.8l113.8-41
	c8.6-2.5,13.5-11.4,10.8-19.9l3-114.4c-4.4-13.7,10.7-25.6,23.4-18.4l48.2,25.5c5,2.8,8,8,8,13.6v152
	C313.8,360.7,301.1,369.7,296.1,372.5z"/>
<polygon fill="#9AE0FF" stroke="#000000" stroke-width="10" stroke-linejoin="round" stroke-miterlimit="10" points="768.6,402.3 
	584.7,507.9 400.8,402.3 400.8,191.1 584.7,85.5 768.6,191.1 "/>
<g>
	<g>
		<line fill="none" stroke="#000000" stroke-width="10" stroke-linejoin="round" x1="953.9" y1="85.6" x2="771" y2="191.2"/>
		<g>
			<circle cx="953.9" cy="85.6" r="18.8"/>
		</g>
	</g>
</g>
<g>
	<g>
		<line fill="none" stroke="#000000" stroke-width="10" stroke-linejoin="round" x1="405.3" y1="191.2" x2="222.4" y2="85.6"/>
		<g>
			<circle cx="222.4" cy="85.6" r="18.8"/>
		</g>
	</g>
</g>
<g>
	<g>
		<polyline fill="none" stroke="#000000" stroke-width="10" stroke-linejoin="round" points="405.3,402.2 222.4,507.9 39.5,402.3 		
			"/>
		<g>
			<circle cx="39.5" cy="402.3" r="18.8"/>
		</g>
	</g>
</g>
<g>
	<g>
		<line fill="none" stroke="#000000" stroke-width="10" stroke-linejoin="round" x1="220" y1="718" x2="220" y2="506"/>
		<g>
			<circle cx="220.4" cy="718" r="18.8"/>
		</g>
	</g>
</g>
<text transform="matrix(1 0 0 1 793.3643 361.6753)" fill="none" font-family="'AIGDT'" font-size="185.4586">MINTPLACER</text>
<polygon fill="#1E908B" points="768.6,402.3 584.7,507.9 400.8,402.3 400.8,191.1 584.7,85.5 768.6,191.1 "/>
<path fill="#81BCD6" d="M384.4,25"/>
<path fill="#81BCD6" d="M341.4,77"/>
<polygon fill="#1FBB99" points="707.5,436 765.4,402.3 765.9,190.3 583,84.7 446.8,163.7 "/>
<polygon fill="none" stroke="#000000" stroke-width="10" stroke-linejoin="round" stroke-miterlimit="10" points="768.6,402.3 
	584.7,507.9 400.8,402.3 400.8,191.1 584.7,85.5 768.6,191.1 "/>
</svg>
